<?xml version="1.0" encoding="UTF-8"?>
<svg viewBox="0 0 48 48" xmlns="http://www.w3.org/2000/svg" width="96" height="96"><defs><linearGradient id="avSea" x1="0" y1="0" x2="1" y2="1"><stop offset="0" stop-color="#9cc2ff"/><stop offset="1" stop-color="#3f6fd1"/></linearGradient></defs><g><path d="M6 27Q9 16 23 18Q33 19 36 25L43 19L41.5 28L43 36L36 30Q31 37 19 36Q8 35 6 27Z" fill="url(#avSea)"/><path d="M9 29Q20 34 34 29" fill="none" stroke="#ffffff" stroke-opacity="0.35" stroke-width="1.3" stroke-linecap="round"/><circle cx="14" cy="25" r="1.5" fill="#0c1030"/></g><g><g opacity="0.050"><path d="M16 6.6Q16 10 19.4 10Q16 10 16 13.4Q16 10 12.6 10Q16 10 16 6.6Z" fill="#6fe3d6" stroke="#6fe3d6" stroke-width="8.002" stroke-linejoin="round" stroke-linecap="round"/></g><g opacity="0.070"><path d="M16 6.6Q16 10 19.4 10Q16 10 16 13.4Q16 10 12.6 10Q16 10 16 6.6Z" fill="#6fe3d6" stroke="#6fe3d6" stroke-width="6.251" stroke-linejoin="round" stroke-linecap="round"/></g><g opacity="0.090"><path d="M16 6.6Q16 10 19.4 10Q16 10 16 13.4Q16 10 12.6 10Q16 10 16 6.6Z" fill="#6fe3d6" stroke="#6fe3d6" stroke-width="4.501" stroke-linejoin="round" stroke-linecap="round"/></g><g opacity="0.120"><path d="M16 6.6Q16 10 19.4 10Q16 10 16 13.4Q16 10 12.6 10Q16 10 16 6.6Z" fill="#6fe3d6" stroke="#6fe3d6" stroke-width="3.001" stroke-linejoin="round" stroke-linecap="round"/></g><g opacity="0.160"><path d="M16 6.6Q16 10 19.4 10Q16 10 16 13.4Q16 10 12.6 10Q16 10 16 6.6Z" fill="#6fe3d6" stroke="#6fe3d6" stroke-width="1.5" stroke-linejoin="round" stroke-linecap="round"/></g><path d="M16 6.6Q16 10 19.4 10Q16 10 16 13.4Q16 10 12.6 10Q16 10 16 6.6Z" fill="#6fe3d6"/></g><g><path d="M21 4.3Q21 6.5 23.2 6.5Q21 6.5 21 8.7Q21 6.5 18.8 6.5Q21 6.5 21 4.3Z" fill="#ffe7a3"/></g><g><circle cx="11" cy="7" r="1" fill="#f4f3ff"/></g></svg>