<?xml version="1.0" encoding="UTF-8"?>
<svg viewBox="0 0 380 300" xmlns="http://www.w3.org/2000/svg" width="380" height="300"><g transform="translate(-29.21 -23.05) scale(1.1537)"> <defs><linearGradient id="fxg146" x1="0" y1="0" x2=".35" y2="1"><stop offset="0" stop-color="#c4bcff" stop-opacity="0.32"/><stop offset=".55" stop-color="#8a7cff" stop-opacity="0.2"/><stop offset="1" stop-color="#6a5ae6" stop-opacity="0.13"/></linearGradient> <linearGradient id="fxl146" x1="0" y1="0" x2="1" y2="0"><stop offset="0" stop-color="#ffffff" stop-opacity="0"/><stop offset=".5" stop-color="#ffffff" stop-opacity="0.16"/><stop offset="1" stop-color="#ffffff" stop-opacity="0"/></linearGradient> <clipPath id="fxc146"><path d="M153 175C152 172 151 164 152 159C153 154 156 149 159 146C161 143 164 140 166 138C168 136 170 135 173 133C178 131 185 129 190 128C194 127 197 127 200 128C204 128 206 129 210 130C215 132 224 135 229 138C233 142 236 145 238 150C241 154 242 160 243 165C243 170 242 174 240 179C239 183 236 187 232 191C229 194 225 196 221 197C217 199 213 200 208 201C202 202 195 201 189 200C184 199 180 198 175 196C171 193 165 190 162 187C159 185 157 182 156 180C154 178 154 177 153 175ZM192 123C196 116 206 102 214 92C221 83 229 75 237 68C244 63 253 58 260 55C268 52 276 49 282 48C286 48 288 47 292 48C297 48 303 48 308 49C313 51 319 52 323 54C326 56 329 57 332 60C336 63 342 67 345 71C348 74 351 77 352 81C354 84 356 87 357 91C358 94 359 98 359 102C360 106 360 113 359 118C359 122 358 125 356 129C355 133 352 137 350 140C347 143 342 147 339 148C336 149 334 149 331 149C328 148 322 146 319 145C317 144 316 144 315 142C314 141 313 139 313 137C314 136 315 134 316 133C317 132 318 132 319 132C322 132 330 135 333 135C334 135 334 136 335 135C336 135 337 133 338 131C339 129 341 126 342 123C343 121 343 119 344 116C344 112 344 108 343 104C342 101 342 99 341 96C340 93 338 90 335 87C332 84 329 80 325 78C322 76 319 74 315 72C312 71 308 70 304 69C300 68 296 68 293 68C289 69 285 69 282 70C278 72 274 73 271 75C266 78 261 81 257 85C251 90 245 97 240 105C234 115 228 133 223 139C221 142 220 144 218 145C216 147 214 148 211 148C209 149 206 149 203 148C201 148 198 146 197 145C195 143 193 141 192 138C191 136 190 133 190 131C191 128 191 126 192 123ZM323 149C324 151 321 155 319 157C317 159 314 163 312 163C311 162 309 159 308 156C307 152 304 144 305 142C307 140 312 142 315 143C318 144 322 146 323 149ZM169 183C163 187 125 203 117 209C114 212 113 212 111 215C108 220 103 234 100 236C98 238 97 238 95 238C94 237 92 236 92 235C91 234 91 232 92 230C92 227 97 219 99 215C102 211 104 207 107 204C109 202 111 201 115 198C124 191 159 171 166 170C167 169 168 170 169 170C170 171 172 173 173 175C173 176 173 179 172 181C171 182 171 182 169 183ZM83 234C84 232 87 227 89 225C90 223 91 223 93 222C94 221 96 221 98 221C102 221 108 222 111 223C112 224 114 224 114 225C114 228 104 232 103 236C103 241 114 250 114 253C114 255 113 255 112 256C110 257 105 259 102 260C99 261 95 261 93 260C91 260 91 259 90 258C88 256 86 252 84 249C83 246 82 242 82 239C82 237 83 236 83 234ZM190 197C189 201 183 214 180 222C178 229 176 236 175 241C175 246 175 249 176 253C177 258 185 266 185 270C185 272 185 273 184 274C183 275 181 276 180 276C178 276 177 275 176 274C173 271 168 261 166 257C165 254 165 253 164 251C164 248 164 244 164 240C165 234 166 226 168 219C171 210 174 197 177 192C178 189 180 188 181 187C183 187 186 187 187 188C189 189 190 192 190 193C191 195 190 195 190 197ZM170 270C171 268 171 266 173 265C174 262 178 258 180 257C182 256 183 256 185 255C187 255 193 255 195 256C196 256 197 256 197 257C198 259 186 264 187 267C188 270 203 272 204 274C205 275 204 276 203 277C202 279 199 282 196 284C193 286 189 288 187 288C185 288 185 288 183 287C181 286 177 284 174 281C172 279 170 276 170 274C169 273 170 271 170 270ZM172 141C168 140 159 135 154 132C149 129 144 127 140 123C136 119 133 112 130 107C128 103 126 99 126 97C126 96 126 95 127 95C127 95 128 95 129 96C132 98 134 106 137 110C139 114 141 116 144 119C147 122 151 125 156 127C162 131 173 134 175 137C176 138 176 139 175 140C175 141 173 141 172 141ZM189 133C184 130 171 113 167 105C164 98 164 92 162 87C162 83 160 78 161 76C161 75 161 74 162 74C163 74 164 74 164 75C167 79 168 94 172 102C177 112 192 126 193 131C193 132 192 133 192 134C191 134 190 134 189 133ZM233 174C237 174 249 178 255 180C259 182 262 183 265 185C268 188 271 192 273 196C276 200 280 207 279 209C279 209 277 210 277 209C274 208 272 201 270 198C267 195 265 191 262 189C259 187 257 186 253 185C247 183 233 181 231 179C230 178 230 176 230 176C230 175 231 174 233 174ZM239 157C242 155 253 155 259 155C265 155 271 155 275 157C279 159 282 162 285 165C288 169 294 175 293 177C293 178 292 178 291 178C289 178 285 171 282 168C279 166 277 163 273 162C269 160 264 160 259 160C253 160 241 163 238 162C237 161 237 160 237 159C237 158 238 157 239 157Z" fill="#000000"/></clipPath> </defs> <g><g transform="translate(4 12)" opacity="0.55"><path d="M153 175C152 172 151 164 152 159C153 154 156 149 159 146C161 143 164 140 166 138C168 136 170 135 173 133C178 131 185 129 190 128C194 127 197 127 200 128C204 128 206 129 210 130C215 132 224 135 229 138C233 142 236 145 238 150C241 154 242 160 243 165C243 170 242 174 240 179C239 183 236 187 232 191C229 194 225 196 221 197C217 199 213 200 208 201C202 202 195 201 189 200C184 199 180 198 175 196C171 193 165 190 162 187C159 185 157 182 156 180C154 178 154 177 153 175ZM192 123C196 116 206 102 214 92C221 83 229 75 237 68C244 63 253 58 260 55C268 52 276 49 282 48C286 48 288 47 292 48C297 48 303 48 308 49C313 51 319 52 323 54C326 56 329 57 332 60C336 63 342 67 345 71C348 74 351 77 352 81C354 84 356 87 357 91C358 94 359 98 359 102C360 106 360 113 359 118C359 122 358 125 356 129C355 133 352 137 350 140C347 143 342 147 339 148C336 149 334 149 331 149C328 148 322 146 319 145C317 144 316 144 315 142C314 141 313 139 313 137C314 136 315 134 316 133C317 132 318 132 319 132C322 132 330 135 333 135C334 135 334 136 335 135C336 135 337 133 338 131C339 129 341 126 342 123C343 121 343 119 344 116C344 112 344 108 343 104C342 101 342 99 341 96C340 93 338 90 335 87C332 84 329 80 325 78C322 76 319 74 315 72C312 71 308 70 304 69C300 68 296 68 293 68C289 69 285 69 282 70C278 72 274 73 271 75C266 78 261 81 257 85C251 90 245 97 240 105C234 115 228 133 223 139C221 142 220 144 218 145C216 147 214 148 211 148C209 149 206 149 203 148C201 148 198 146 197 145C195 143 193 141 192 138C191 136 190 133 190 131C191 128 191 126 192 123ZM323 149C324 151 321 155 319 157C317 159 314 163 312 163C311 162 309 159 308 156C307 152 304 144 305 142C307 140 312 142 315 143C318 144 322 146 323 149ZM169 183C163 187 125 203 117 209C114 212 113 212 111 215C108 220 103 234 100 236C98 238 97 238 95 238C94 237 92 236 92 235C91 234 91 232 92 230C92 227 97 219 99 215C102 211 104 207 107 204C109 202 111 201 115 198C124 191 159 171 166 170C167 169 168 170 169 170C170 171 172 173 173 175C173 176 173 179 172 181C171 182 171 182 169 183ZM83 234C84 232 87 227 89 225C90 223 91 223 93 222C94 221 96 221 98 221C102 221 108 222 111 223C112 224 114 224 114 225C114 228 104 232 103 236C103 241 114 250 114 253C114 255 113 255 112 256C110 257 105 259 102 260C99 261 95 261 93 260C91 260 91 259 90 258C88 256 86 252 84 249C83 246 82 242 82 239C82 237 83 236 83 234ZM190 197C189 201 183 214 180 222C178 229 176 236 175 241C175 246 175 249 176 253C177 258 185 266 185 270C185 272 185 273 184 274C183 275 181 276 180 276C178 276 177 275 176 274C173 271 168 261 166 257C165 254 165 253 164 251C164 248 164 244 164 240C165 234 166 226 168 219C171 210 174 197 177 192C178 189 180 188 181 187C183 187 186 187 187 188C189 189 190 192 190 193C191 195 190 195 190 197ZM170 270C171 268 171 266 173 265C174 262 178 258 180 257C182 256 183 256 185 255C187 255 193 255 195 256C196 256 197 256 197 257C198 259 186 264 187 267C188 270 203 272 204 274C205 275 204 276 203 277C202 279 199 282 196 284C193 286 189 288 187 288C185 288 185 288 183 287C181 286 177 284 174 281C172 279 170 276 170 274C169 273 170 271 170 270ZM172 141C168 140 159 135 154 132C149 129 144 127 140 123C136 119 133 112 130 107C128 103 126 99 126 97C126 96 126 95 127 95C127 95 128 95 129 96C132 98 134 106 137 110C139 114 141 116 144 119C147 122 151 125 156 127C162 131 173 134 175 137C176 138 176 139 175 140C175 141 173 141 172 141ZM189 133C184 130 171 113 167 105C164 98 164 92 162 87C162 83 160 78 161 76C161 75 161 74 162 74C163 74 164 74 164 75C167 79 168 94 172 102C177 112 192 126 193 131C193 132 192 133 192 134C191 134 190 134 189 133ZM233 174C237 174 249 178 255 180C259 182 262 183 265 185C268 188 271 192 273 196C276 200 280 207 279 209C279 209 277 210 277 209C274 208 272 201 270 198C267 195 265 191 262 189C259 187 257 186 253 185C247 183 233 181 231 179C230 178 230 176 230 176C230 175 231 174 233 174ZM239 157C242 155 253 155 259 155C265 155 271 155 275 157C279 159 282 162 285 165C288 169 294 175 293 177C293 178 292 178 291 178C289 178 285 171 282 168C279 166 277 163 273 162C269 160 264 160 259 160C253 160 241 163 238 162C237 161 237 160 237 159C237 158 238 157 239 157Z" fill="#02030c" stroke="#02030c" stroke-width="24" stroke-linejoin="round" opacity="0.1"/><path d="M153 175C152 172 151 164 152 159C153 154 156 149 159 146C161 143 164 140 166 138C168 136 170 135 173 133C178 131 185 129 190 128C194 127 197 127 200 128C204 128 206 129 210 130C215 132 224 135 229 138C233 142 236 145 238 150C241 154 242 160 243 165C243 170 242 174 240 179C239 183 236 187 232 191C229 194 225 196 221 197C217 199 213 200 208 201C202 202 195 201 189 200C184 199 180 198 175 196C171 193 165 190 162 187C159 185 157 182 156 180C154 178 154 177 153 175ZM192 123C196 116 206 102 214 92C221 83 229 75 237 68C244 63 253 58 260 55C268 52 276 49 282 48C286 48 288 47 292 48C297 48 303 48 308 49C313 51 319 52 323 54C326 56 329 57 332 60C336 63 342 67 345 71C348 74 351 77 352 81C354 84 356 87 357 91C358 94 359 98 359 102C360 106 360 113 359 118C359 122 358 125 356 129C355 133 352 137 350 140C347 143 342 147 339 148C336 149 334 149 331 149C328 148 322 146 319 145C317 144 316 144 315 142C314 141 313 139 313 137C314 136 315 134 316 133C317 132 318 132 319 132C322 132 330 135 333 135C334 135 334 136 335 135C336 135 337 133 338 131C339 129 341 126 342 123C343 121 343 119 344 116C344 112 344 108 343 104C342 101 342 99 341 96C340 93 338 90 335 87C332 84 329 80 325 78C322 76 319 74 315 72C312 71 308 70 304 69C300 68 296 68 293 68C289 69 285 69 282 70C278 72 274 73 271 75C266 78 261 81 257 85C251 90 245 97 240 105C234 115 228 133 223 139C221 142 220 144 218 145C216 147 214 148 211 148C209 149 206 149 203 148C201 148 198 146 197 145C195 143 193 141 192 138C191 136 190 133 190 131C191 128 191 126 192 123ZM323 149C324 151 321 155 319 157C317 159 314 163 312 163C311 162 309 159 308 156C307 152 304 144 305 142C307 140 312 142 315 143C318 144 322 146 323 149ZM169 183C163 187 125 203 117 209C114 212 113 212 111 215C108 220 103 234 100 236C98 238 97 238 95 238C94 237 92 236 92 235C91 234 91 232 92 230C92 227 97 219 99 215C102 211 104 207 107 204C109 202 111 201 115 198C124 191 159 171 166 170C167 169 168 170 169 170C170 171 172 173 173 175C173 176 173 179 172 181C171 182 171 182 169 183ZM83 234C84 232 87 227 89 225C90 223 91 223 93 222C94 221 96 221 98 221C102 221 108 222 111 223C112 224 114 224 114 225C114 228 104 232 103 236C103 241 114 250 114 253C114 255 113 255 112 256C110 257 105 259 102 260C99 261 95 261 93 260C91 260 91 259 90 258C88 256 86 252 84 249C83 246 82 242 82 239C82 237 83 236 83 234ZM190 197C189 201 183 214 180 222C178 229 176 236 175 241C175 246 175 249 176 253C177 258 185 266 185 270C185 272 185 273 184 274C183 275 181 276 180 276C178 276 177 275 176 274C173 271 168 261 166 257C165 254 165 253 164 251C164 248 164 244 164 240C165 234 166 226 168 219C171 210 174 197 177 192C178 189 180 188 181 187C183 187 186 187 187 188C189 189 190 192 190 193C191 195 190 195 190 197ZM170 270C171 268 171 266 173 265C174 262 178 258 180 257C182 256 183 256 185 255C187 255 193 255 195 256C196 256 197 256 197 257C198 259 186 264 187 267C188 270 203 272 204 274C205 275 204 276 203 277C202 279 199 282 196 284C193 286 189 288 187 288C185 288 185 288 183 287C181 286 177 284 174 281C172 279 170 276 170 274C169 273 170 271 170 270ZM172 141C168 140 159 135 154 132C149 129 144 127 140 123C136 119 133 112 130 107C128 103 126 99 126 97C126 96 126 95 127 95C127 95 128 95 129 96C132 98 134 106 137 110C139 114 141 116 144 119C147 122 151 125 156 127C162 131 173 134 175 137C176 138 176 139 175 140C175 141 173 141 172 141ZM189 133C184 130 171 113 167 105C164 98 164 92 162 87C162 83 160 78 161 76C161 75 161 74 162 74C163 74 164 74 164 75C167 79 168 94 172 102C177 112 192 126 193 131C193 132 192 133 192 134C191 134 190 134 189 133ZM233 174C237 174 249 178 255 180C259 182 262 183 265 185C268 188 271 192 273 196C276 200 280 207 279 209C279 209 277 210 277 209C274 208 272 201 270 198C267 195 265 191 262 189C259 187 257 186 253 185C247 183 233 181 231 179C230 178 230 176 230 176C230 175 231 174 233 174ZM239 157C242 155 253 155 259 155C265 155 271 155 275 157C279 159 282 162 285 165C288 169 294 175 293 177C293 178 292 178 291 178C289 178 285 171 282 168C279 166 277 163 273 162C269 160 264 160 259 160C253 160 241 163 238 162C237 161 237 160 237 159C237 158 238 157 239 157Z" fill="#02030c" stroke="#02030c" stroke-width="16" stroke-linejoin="round" opacity="0.14"/><path d="M153 175C152 172 151 164 152 159C153 154 156 149 159 146C161 143 164 140 166 138C168 136 170 135 173 133C178 131 185 129 190 128C194 127 197 127 200 128C204 128 206 129 210 130C215 132 224 135 229 138C233 142 236 145 238 150C241 154 242 160 243 165C243 170 242 174 240 179C239 183 236 187 232 191C229 194 225 196 221 197C217 199 213 200 208 201C202 202 195 201 189 200C184 199 180 198 175 196C171 193 165 190 162 187C159 185 157 182 156 180C154 178 154 177 153 175ZM192 123C196 116 206 102 214 92C221 83 229 75 237 68C244 63 253 58 260 55C268 52 276 49 282 48C286 48 288 47 292 48C297 48 303 48 308 49C313 51 319 52 323 54C326 56 329 57 332 60C336 63 342 67 345 71C348 74 351 77 352 81C354 84 356 87 357 91C358 94 359 98 359 102C360 106 360 113 359 118C359 122 358 125 356 129C355 133 352 137 350 140C347 143 342 147 339 148C336 149 334 149 331 149C328 148 322 146 319 145C317 144 316 144 315 142C314 141 313 139 313 137C314 136 315 134 316 133C317 132 318 132 319 132C322 132 330 135 333 135C334 135 334 136 335 135C336 135 337 133 338 131C339 129 341 126 342 123C343 121 343 119 344 116C344 112 344 108 343 104C342 101 342 99 341 96C340 93 338 90 335 87C332 84 329 80 325 78C322 76 319 74 315 72C312 71 308 70 304 69C300 68 296 68 293 68C289 69 285 69 282 70C278 72 274 73 271 75C266 78 261 81 257 85C251 90 245 97 240 105C234 115 228 133 223 139C221 142 220 144 218 145C216 147 214 148 211 148C209 149 206 149 203 148C201 148 198 146 197 145C195 143 193 141 192 138C191 136 190 133 190 131C191 128 191 126 192 123ZM323 149C324 151 321 155 319 157C317 159 314 163 312 163C311 162 309 159 308 156C307 152 304 144 305 142C307 140 312 142 315 143C318 144 322 146 323 149ZM169 183C163 187 125 203 117 209C114 212 113 212 111 215C108 220 103 234 100 236C98 238 97 238 95 238C94 237 92 236 92 235C91 234 91 232 92 230C92 227 97 219 99 215C102 211 104 207 107 204C109 202 111 201 115 198C124 191 159 171 166 170C167 169 168 170 169 170C170 171 172 173 173 175C173 176 173 179 172 181C171 182 171 182 169 183ZM83 234C84 232 87 227 89 225C90 223 91 223 93 222C94 221 96 221 98 221C102 221 108 222 111 223C112 224 114 224 114 225C114 228 104 232 103 236C103 241 114 250 114 253C114 255 113 255 112 256C110 257 105 259 102 260C99 261 95 261 93 260C91 260 91 259 90 258C88 256 86 252 84 249C83 246 82 242 82 239C82 237 83 236 83 234ZM190 197C189 201 183 214 180 222C178 229 176 236 175 241C175 246 175 249 176 253C177 258 185 266 185 270C185 272 185 273 184 274C183 275 181 276 180 276C178 276 177 275 176 274C173 271 168 261 166 257C165 254 165 253 164 251C164 248 164 244 164 240C165 234 166 226 168 219C171 210 174 197 177 192C178 189 180 188 181 187C183 187 186 187 187 188C189 189 190 192 190 193C191 195 190 195 190 197ZM170 270C171 268 171 266 173 265C174 262 178 258 180 257C182 256 183 256 185 255C187 255 193 255 195 256C196 256 197 256 197 257C198 259 186 264 187 267C188 270 203 272 204 274C205 275 204 276 203 277C202 279 199 282 196 284C193 286 189 288 187 288C185 288 185 288 183 287C181 286 177 284 174 281C172 279 170 276 170 274C169 273 170 271 170 270ZM172 141C168 140 159 135 154 132C149 129 144 127 140 123C136 119 133 112 130 107C128 103 126 99 126 97C126 96 126 95 127 95C127 95 128 95 129 96C132 98 134 106 137 110C139 114 141 116 144 119C147 122 151 125 156 127C162 131 173 134 175 137C176 138 176 139 175 140C175 141 173 141 172 141ZM189 133C184 130 171 113 167 105C164 98 164 92 162 87C162 83 160 78 161 76C161 75 161 74 162 74C163 74 164 74 164 75C167 79 168 94 172 102C177 112 192 126 193 131C193 132 192 133 192 134C191 134 190 134 189 133ZM233 174C237 174 249 178 255 180C259 182 262 183 265 185C268 188 271 192 273 196C276 200 280 207 279 209C279 209 277 210 277 209C274 208 272 201 270 198C267 195 265 191 262 189C259 187 257 186 253 185C247 183 233 181 231 179C230 178 230 176 230 176C230 175 231 174 233 174ZM239 157C242 155 253 155 259 155C265 155 271 155 275 157C279 159 282 162 285 165C288 169 294 175 293 177C293 178 292 178 291 178C289 178 285 171 282 168C279 166 277 163 273 162C269 160 264 160 259 160C253 160 241 163 238 162C237 161 237 160 237 159C237 158 238 157 239 157Z" fill="#02030c" stroke="#02030c" stroke-width="8" stroke-linejoin="round" opacity="0.18"/></g> <g><path d="M153 175C152 172 151 164 152 159C153 154 156 149 159 146C161 143 164 140 166 138C168 136 170 135 173 133C178 131 185 129 190 128C194 127 197 127 200 128C204 128 206 129 210 130C215 132 224 135 229 138C233 142 236 145 238 150C241 154 242 160 243 165C243 170 242 174 240 179C239 183 236 187 232 191C229 194 225 196 221 197C217 199 213 200 208 201C202 202 195 201 189 200C184 199 180 198 175 196C171 193 165 190 162 187C159 185 157 182 156 180C154 178 154 177 153 175ZM192 123C196 116 206 102 214 92C221 83 229 75 237 68C244 63 253 58 260 55C268 52 276 49 282 48C286 48 288 47 292 48C297 48 303 48 308 49C313 51 319 52 323 54C326 56 329 57 332 60C336 63 342 67 345 71C348 74 351 77 352 81C354 84 356 87 357 91C358 94 359 98 359 102C360 106 360 113 359 118C359 122 358 125 356 129C355 133 352 137 350 140C347 143 342 147 339 148C336 149 334 149 331 149C328 148 322 146 319 145C317 144 316 144 315 142C314 141 313 139 313 137C314 136 315 134 316 133C317 132 318 132 319 132C322 132 330 135 333 135C334 135 334 136 335 135C336 135 337 133 338 131C339 129 341 126 342 123C343 121 343 119 344 116C344 112 344 108 343 104C342 101 342 99 341 96C340 93 338 90 335 87C332 84 329 80 325 78C322 76 319 74 315 72C312 71 308 70 304 69C300 68 296 68 293 68C289 69 285 69 282 70C278 72 274 73 271 75C266 78 261 81 257 85C251 90 245 97 240 105C234 115 228 133 223 139C221 142 220 144 218 145C216 147 214 148 211 148C209 149 206 149 203 148C201 148 198 146 197 145C195 143 193 141 192 138C191 136 190 133 190 131C191 128 191 126 192 123ZM323 149C324 151 321 155 319 157C317 159 314 163 312 163C311 162 309 159 308 156C307 152 304 144 305 142C307 140 312 142 315 143C318 144 322 146 323 149ZM169 183C163 187 125 203 117 209C114 212 113 212 111 215C108 220 103 234 100 236C98 238 97 238 95 238C94 237 92 236 92 235C91 234 91 232 92 230C92 227 97 219 99 215C102 211 104 207 107 204C109 202 111 201 115 198C124 191 159 171 166 170C167 169 168 170 169 170C170 171 172 173 173 175C173 176 173 179 172 181C171 182 171 182 169 183ZM83 234C84 232 87 227 89 225C90 223 91 223 93 222C94 221 96 221 98 221C102 221 108 222 111 223C112 224 114 224 114 225C114 228 104 232 103 236C103 241 114 250 114 253C114 255 113 255 112 256C110 257 105 259 102 260C99 261 95 261 93 260C91 260 91 259 90 258C88 256 86 252 84 249C83 246 82 242 82 239C82 237 83 236 83 234ZM190 197C189 201 183 214 180 222C178 229 176 236 175 241C175 246 175 249 176 253C177 258 185 266 185 270C185 272 185 273 184 274C183 275 181 276 180 276C178 276 177 275 176 274C173 271 168 261 166 257C165 254 165 253 164 251C164 248 164 244 164 240C165 234 166 226 168 219C171 210 174 197 177 192C178 189 180 188 181 187C183 187 186 187 187 188C189 189 190 192 190 193C191 195 190 195 190 197ZM170 270C171 268 171 266 173 265C174 262 178 258 180 257C182 256 183 256 185 255C187 255 193 255 195 256C196 256 197 256 197 257C198 259 186 264 187 267C188 270 203 272 204 274C205 275 204 276 203 277C202 279 199 282 196 284C193 286 189 288 187 288C185 288 185 288 183 287C181 286 177 284 174 281C172 279 170 276 170 274C169 273 170 271 170 270ZM172 141C168 140 159 135 154 132C149 129 144 127 140 123C136 119 133 112 130 107C128 103 126 99 126 97C126 96 126 95 127 95C127 95 128 95 129 96C132 98 134 106 137 110C139 114 141 116 144 119C147 122 151 125 156 127C162 131 173 134 175 137C176 138 176 139 175 140C175 141 173 141 172 141ZM189 133C184 130 171 113 167 105C164 98 164 92 162 87C162 83 160 78 161 76C161 75 161 74 162 74C163 74 164 74 164 75C167 79 168 94 172 102C177 112 192 126 193 131C193 132 192 133 192 134C191 134 190 134 189 133ZM233 174C237 174 249 178 255 180C259 182 262 183 265 185C268 188 271 192 273 196C276 200 280 207 279 209C279 209 277 210 277 209C274 208 272 201 270 198C267 195 265 191 262 189C259 187 257 186 253 185C247 183 233 181 231 179C230 178 230 176 230 176C230 175 231 174 233 174ZM239 157C242 155 253 155 259 155C265 155 271 155 275 157C279 159 282 162 285 165C288 169 294 175 293 177C293 178 292 178 291 178C289 178 285 171 282 168C279 166 277 163 273 162C269 160 264 160 259 160C253 160 241 163 238 162C237 161 237 160 237 159C237 158 238 157 239 157Z" fill="url(#fxg146)"/> <g clip-path="url(#fxc146)"><g transform="rotate(20 190 150)"><rect x="-60" y="-120" width="90" height="560" fill="url(#fxl146)" opacity="0"/></g></g> </g></g></g><g opacity="0.050"><line pathLength="1" x1="297.6" y1="30" x2="305.9" y2="61.2" stroke="#8a7cff" fill="#8a7cff" stroke-width="6.6" stroke-linecap="round" stroke-linejoin="round"/></g><g opacity="0.070"><line pathLength="1" x1="297.6" y1="30" x2="305.9" y2="61.2" stroke="#8a7cff" fill="#8a7cff" stroke-width="5.55" stroke-linecap="round" stroke-linejoin="round"/></g><g opacity="0.090"><line pathLength="1" x1="297.6" y1="30" x2="305.9" y2="61.2" stroke="#8a7cff" fill="#8a7cff" stroke-width="4.5" stroke-linecap="round" stroke-linejoin="round"/></g><g opacity="0.120"><line pathLength="1" x1="297.6" y1="30" x2="305.9" y2="61.2" stroke="#8a7cff" fill="#8a7cff" stroke-width="3.6" stroke-linecap="round" stroke-linejoin="round"/></g><g opacity="0.160"><line pathLength="1" x1="297.6" y1="30" x2="305.9" y2="61.2" stroke="#8a7cff" fill="#8a7cff" stroke-width="2.7" stroke-linecap="round" stroke-linejoin="round"/></g><line pathLength="1" x1="297.6" y1="30" x2="305.9" y2="61.2" stroke="#8a7cff" fill="#000000" stroke-width="1.8" stroke-linecap="round"/><g opacity="0.050"><line pathLength="1" x1="305.9" y1="61.2" x2="305.6" y2="98.3" stroke="#8a7cff" fill="#8a7cff" stroke-width="6.6" stroke-linecap="round" stroke-linejoin="round"/></g><g opacity="0.070"><line pathLength="1" x1="305.9" y1="61.2" x2="305.6" y2="98.3" stroke="#8a7cff" fill="#8a7cff" stroke-width="5.55" stroke-linecap="round" stroke-linejoin="round"/></g><g opacity="0.090"><line pathLength="1" x1="305.9" y1="61.2" x2="305.6" y2="98.3" stroke="#8a7cff" fill="#8a7cff" stroke-width="4.5" stroke-linecap="round" stroke-linejoin="round"/></g><g opacity="0.120"><line pathLength="1" x1="305.9" y1="61.2" x2="305.6" y2="98.3" stroke="#8a7cff" fill="#8a7cff" stroke-width="3.6" stroke-linecap="round" stroke-linejoin="round"/></g><g opacity="0.160"><line pathLength="1" x1="305.9" y1="61.2" x2="305.6" y2="98.3" stroke="#8a7cff" fill="#8a7cff" stroke-width="2.7" stroke-linecap="round" stroke-linejoin="round"/></g><line pathLength="1" x1="305.9" y1="61.2" x2="305.6" y2="98.3" stroke="#8a7cff" fill="#000000" stroke-width="1.8" stroke-linecap="round"/><g opacity="0.050"><line pathLength="1" x1="305.9" y1="61.2" x2="254.1" y2="88.8" stroke="#8a7cff" fill="#8a7cff" stroke-width="6.6" stroke-linecap="round" stroke-linejoin="round"/></g><g opacity="0.070"><line pathLength="1" x1="305.9" y1="61.2" x2="254.1" y2="88.8" stroke="#8a7cff" fill="#8a7cff" stroke-width="5.55" stroke-linecap="round" stroke-linejoin="round"/></g><g opacity="0.090"><line pathLength="1" x1="305.9" y1="61.2" x2="254.1" y2="88.8" stroke="#8a7cff" fill="#8a7cff" stroke-width="4.5" stroke-linecap="round" stroke-linejoin="round"/></g><g opacity="0.120"><line pathLength="1" x1="305.9" y1="61.2" x2="254.1" y2="88.8" stroke="#8a7cff" fill="#8a7cff" stroke-width="3.6" stroke-linecap="round" stroke-linejoin="round"/></g><g opacity="0.160"><line pathLength="1" x1="305.9" y1="61.2" x2="254.1" y2="88.8" stroke="#8a7cff" fill="#8a7cff" stroke-width="2.7" stroke-linecap="round" stroke-linejoin="round"/></g><line pathLength="1" x1="305.9" y1="61.2" x2="254.1" y2="88.8" stroke="#8a7cff" fill="#000000" stroke-width="1.8" stroke-linecap="round"/><g opacity="0.050"><line pathLength="1" x1="254.1" y1="88.8" x2="234.1" y2="96.5" stroke="#8a7cff" fill="#8a7cff" stroke-width="6.6" stroke-linecap="round" stroke-linejoin="round"/></g><g opacity="0.070"><line pathLength="1" x1="254.1" y1="88.8" x2="234.1" y2="96.5" stroke="#8a7cff" fill="#8a7cff" stroke-width="5.55" stroke-linecap="round" stroke-linejoin="round"/></g><g opacity="0.090"><line pathLength="1" x1="254.1" y1="88.8" x2="234.1" y2="96.5" stroke="#8a7cff" fill="#8a7cff" stroke-width="4.5" stroke-linecap="round" stroke-linejoin="round"/></g><g opacity="0.120"><line pathLength="1" x1="254.1" y1="88.8" x2="234.1" y2="96.5" stroke="#8a7cff" fill="#8a7cff" stroke-width="3.6" stroke-linecap="round" stroke-linejoin="round"/></g><g opacity="0.160"><line pathLength="1" x1="254.1" y1="88.8" x2="234.1" y2="96.5" stroke="#8a7cff" fill="#8a7cff" stroke-width="2.7" stroke-linecap="round" stroke-linejoin="round"/></g><line pathLength="1" x1="254.1" y1="88.8" x2="234.1" y2="96.5" stroke="#8a7cff" fill="#000000" stroke-width="1.8" stroke-linecap="round"/><g opacity="0.050"><line pathLength="1" x1="234.1" y1="96.5" x2="218.3" y2="114.3" stroke="#8a7cff" fill="#8a7cff" stroke-width="6.6" stroke-linecap="round" stroke-linejoin="round"/></g><g opacity="0.070"><line pathLength="1" x1="234.1" y1="96.5" x2="218.3" y2="114.3" stroke="#8a7cff" fill="#8a7cff" stroke-width="5.55" stroke-linecap="round" stroke-linejoin="round"/></g><g opacity="0.090"><line pathLength="1" x1="234.1" y1="96.5" x2="218.3" y2="114.3" stroke="#8a7cff" fill="#8a7cff" stroke-width="4.5" stroke-linecap="round" stroke-linejoin="round"/></g><g opacity="0.120"><line pathLength="1" x1="234.1" y1="96.5" x2="218.3" y2="114.3" stroke="#8a7cff" fill="#8a7cff" stroke-width="3.6" stroke-linecap="round" stroke-linejoin="round"/></g><g opacity="0.160"><line pathLength="1" x1="234.1" y1="96.5" x2="218.3" y2="114.3" stroke="#8a7cff" fill="#8a7cff" stroke-width="2.7" stroke-linecap="round" stroke-linejoin="round"/></g><line pathLength="1" x1="234.1" y1="96.5" x2="218.3" y2="114.3" stroke="#8a7cff" fill="#000000" stroke-width="1.8" stroke-linecap="round"/><g opacity="0.050"><line pathLength="1" x1="218.3" y1="114.3" x2="185.9" y2="175.2" stroke="#8a7cff" fill="#8a7cff" stroke-width="6.6" stroke-linecap="round" stroke-linejoin="round"/></g><g opacity="0.070"><line pathLength="1" x1="218.3" y1="114.3" x2="185.9" y2="175.2" stroke="#8a7cff" fill="#8a7cff" stroke-width="5.55" stroke-linecap="round" stroke-linejoin="round"/></g><g opacity="0.090"><line pathLength="1" x1="218.3" y1="114.3" x2="185.9" y2="175.2" stroke="#8a7cff" fill="#8a7cff" stroke-width="4.5" stroke-linecap="round" stroke-linejoin="round"/></g><g opacity="0.120"><line pathLength="1" x1="218.3" y1="114.3" x2="185.9" y2="175.2" stroke="#8a7cff" fill="#8a7cff" stroke-width="3.6" stroke-linecap="round" stroke-linejoin="round"/></g><g opacity="0.160"><line pathLength="1" x1="218.3" y1="114.3" x2="185.9" y2="175.2" stroke="#8a7cff" fill="#8a7cff" stroke-width="2.7" stroke-linecap="round" stroke-linejoin="round"/></g><line pathLength="1" x1="218.3" y1="114.3" x2="185.9" y2="175.2" stroke="#8a7cff" fill="#000000" stroke-width="1.8" stroke-linecap="round"/><g opacity="0.050"><line pathLength="1" x1="185.9" y1="175.2" x2="183.4" y2="213.3" stroke="#8a7cff" fill="#8a7cff" stroke-width="6.6" stroke-linecap="round" stroke-linejoin="round"/></g><g opacity="0.070"><line pathLength="1" x1="185.9" y1="175.2" x2="183.4" y2="213.3" stroke="#8a7cff" fill="#8a7cff" stroke-width="5.55" stroke-linecap="round" stroke-linejoin="round"/></g><g opacity="0.090"><line pathLength="1" x1="185.9" y1="175.2" x2="183.4" y2="213.3" stroke="#8a7cff" fill="#8a7cff" stroke-width="4.5" stroke-linecap="round" stroke-linejoin="round"/></g><g opacity="0.120"><line pathLength="1" x1="185.9" y1="175.2" x2="183.4" y2="213.3" stroke="#8a7cff" fill="#8a7cff" stroke-width="3.6" stroke-linecap="round" stroke-linejoin="round"/></g><g opacity="0.160"><line pathLength="1" x1="185.9" y1="175.2" x2="183.4" y2="213.3" stroke="#8a7cff" fill="#8a7cff" stroke-width="2.7" stroke-linecap="round" stroke-linejoin="round"/></g><line pathLength="1" x1="185.9" y1="175.2" x2="183.4" y2="213.3" stroke="#8a7cff" fill="#000000" stroke-width="1.8" stroke-linecap="round"/><g opacity="0.050"><line pathLength="1" x1="183.4" y1="213.3" x2="177.8" y2="257.4" stroke="#8a7cff" fill="#8a7cff" stroke-width="6.6" stroke-linecap="round" stroke-linejoin="round"/></g><g opacity="0.070"><line pathLength="1" x1="183.4" y1="213.3" x2="177.8" y2="257.4" stroke="#8a7cff" fill="#8a7cff" stroke-width="5.55" stroke-linecap="round" stroke-linejoin="round"/></g><g opacity="0.090"><line pathLength="1" x1="183.4" y1="213.3" x2="177.8" y2="257.4" stroke="#8a7cff" fill="#8a7cff" stroke-width="4.5" stroke-linecap="round" stroke-linejoin="round"/></g><g opacity="0.120"><line pathLength="1" x1="183.4" y1="213.3" x2="177.8" y2="257.4" stroke="#8a7cff" fill="#8a7cff" stroke-width="3.6" stroke-linecap="round" stroke-linejoin="round"/></g><g opacity="0.160"><line pathLength="1" x1="183.4" y1="213.3" x2="177.8" y2="257.4" stroke="#8a7cff" fill="#8a7cff" stroke-width="2.7" stroke-linecap="round" stroke-linejoin="round"/></g><line pathLength="1" x1="183.4" y1="213.3" x2="177.8" y2="257.4" stroke="#8a7cff" fill="#000000" stroke-width="1.8" stroke-linecap="round"/><g opacity="0.050"><line pathLength="1" x1="177.8" y1="257.4" x2="145.4" y2="267.7" stroke="#8a7cff" fill="#8a7cff" stroke-width="6.6" stroke-linecap="round" stroke-linejoin="round"/></g><g opacity="0.070"><line pathLength="1" x1="177.8" y1="257.4" x2="145.4" y2="267.7" stroke="#8a7cff" fill="#8a7cff" stroke-width="5.55" stroke-linecap="round" stroke-linejoin="round"/></g><g opacity="0.090"><line pathLength="1" x1="177.8" y1="257.4" x2="145.4" y2="267.7" stroke="#8a7cff" fill="#8a7cff" stroke-width="4.5" stroke-linecap="round" stroke-linejoin="round"/></g><g opacity="0.120"><line pathLength="1" x1="177.8" y1="257.4" x2="145.4" y2="267.7" stroke="#8a7cff" fill="#8a7cff" stroke-width="3.6" stroke-linecap="round" stroke-linejoin="round"/></g><g opacity="0.160"><line pathLength="1" x1="177.8" y1="257.4" x2="145.4" y2="267.7" stroke="#8a7cff" fill="#8a7cff" stroke-width="2.7" stroke-linecap="round" stroke-linejoin="round"/></g><line pathLength="1" x1="177.8" y1="257.4" x2="145.4" y2="267.7" stroke="#8a7cff" fill="#000000" stroke-width="1.8" stroke-linecap="round"/><g opacity="0.050"><line pathLength="1" x1="145.4" y1="267.7" x2="97.7" y2="270" stroke="#8a7cff" fill="#8a7cff" stroke-width="6.6" stroke-linecap="round" stroke-linejoin="round"/></g><g opacity="0.070"><line pathLength="1" x1="145.4" y1="267.7" x2="97.7" y2="270" stroke="#8a7cff" fill="#8a7cff" stroke-width="5.55" stroke-linecap="round" stroke-linejoin="round"/></g><g opacity="0.090"><line pathLength="1" x1="145.4" y1="267.7" x2="97.7" y2="270" stroke="#8a7cff" fill="#8a7cff" stroke-width="4.5" stroke-linecap="round" stroke-linejoin="round"/></g><g opacity="0.120"><line pathLength="1" x1="145.4" y1="267.7" x2="97.7" y2="270" stroke="#8a7cff" fill="#8a7cff" stroke-width="3.6" stroke-linecap="round" stroke-linejoin="round"/></g><g opacity="0.160"><line pathLength="1" x1="145.4" y1="267.7" x2="97.7" y2="270" stroke="#8a7cff" fill="#8a7cff" stroke-width="2.7" stroke-linecap="round" stroke-linejoin="round"/></g><line pathLength="1" x1="145.4" y1="267.7" x2="97.7" y2="270" stroke="#8a7cff" fill="#000000" stroke-width="1.8" stroke-linecap="round"/><g opacity="0.050"><line pathLength="1" x1="97.7" y1="270" x2="74.1" y2="243.3" stroke="#8a7cff" fill="#8a7cff" stroke-width="6.6" stroke-linecap="round" stroke-linejoin="round"/></g><g opacity="0.070"><line pathLength="1" x1="97.7" y1="270" x2="74.1" y2="243.3" stroke="#8a7cff" fill="#8a7cff" stroke-width="5.55" stroke-linecap="round" stroke-linejoin="round"/></g><g opacity="0.090"><line pathLength="1" x1="97.7" y1="270" x2="74.1" y2="243.3" stroke="#8a7cff" fill="#8a7cff" stroke-width="4.5" stroke-linecap="round" stroke-linejoin="round"/></g><g opacity="0.120"><line pathLength="1" x1="97.7" y1="270" x2="74.1" y2="243.3" stroke="#8a7cff" fill="#8a7cff" stroke-width="3.6" stroke-linecap="round" stroke-linejoin="round"/></g><g opacity="0.160"><line pathLength="1" x1="97.7" y1="270" x2="74.1" y2="243.3" stroke="#8a7cff" fill="#8a7cff" stroke-width="2.7" stroke-linecap="round" stroke-linejoin="round"/></g><line pathLength="1" x1="97.7" y1="270" x2="74.1" y2="243.3" stroke="#8a7cff" fill="#000000" stroke-width="1.8" stroke-linecap="round"/><g opacity="0.050"><line pathLength="1" x1="74.1" y1="243.3" x2="82.2" y2="230.5" stroke="#8a7cff" fill="#8a7cff" stroke-width="6.6" stroke-linecap="round" stroke-linejoin="round"/></g><g opacity="0.070"><line pathLength="1" x1="74.1" y1="243.3" x2="82.2" y2="230.5" stroke="#8a7cff" fill="#8a7cff" stroke-width="5.55" stroke-linecap="round" stroke-linejoin="round"/></g><g opacity="0.090"><line pathLength="1" x1="74.1" y1="243.3" x2="82.2" y2="230.5" stroke="#8a7cff" fill="#8a7cff" stroke-width="4.5" stroke-linecap="round" stroke-linejoin="round"/></g><g opacity="0.120"><line pathLength="1" x1="74.1" y1="243.3" x2="82.2" y2="230.5" stroke="#8a7cff" fill="#8a7cff" stroke-width="3.6" stroke-linecap="round" stroke-linejoin="round"/></g><g opacity="0.160"><line pathLength="1" x1="74.1" y1="243.3" x2="82.2" y2="230.5" stroke="#8a7cff" fill="#8a7cff" stroke-width="2.7" stroke-linecap="round" stroke-linejoin="round"/></g><line pathLength="1" x1="74.1" y1="243.3" x2="82.2" y2="230.5" stroke="#8a7cff" fill="#000000" stroke-width="1.8" stroke-linecap="round"/><g opacity="0.050"><line pathLength="1" x1="82.2" y1="230.5" x2="98.2" y2="208.5" stroke="#8a7cff" fill="#8a7cff" stroke-width="6.6" stroke-linecap="round" stroke-linejoin="round"/></g><g opacity="0.070"><line pathLength="1" x1="82.2" y1="230.5" x2="98.2" y2="208.5" stroke="#8a7cff" fill="#8a7cff" stroke-width="5.55" stroke-linecap="round" stroke-linejoin="round"/></g><g opacity="0.090"><line pathLength="1" x1="82.2" y1="230.5" x2="98.2" y2="208.5" stroke="#8a7cff" fill="#8a7cff" stroke-width="4.5" stroke-linecap="round" stroke-linejoin="round"/></g><g opacity="0.120"><line pathLength="1" x1="82.2" y1="230.5" x2="98.2" y2="208.5" stroke="#8a7cff" fill="#8a7cff" stroke-width="3.6" stroke-linecap="round" stroke-linejoin="round"/></g><g opacity="0.160"><line pathLength="1" x1="82.2" y1="230.5" x2="98.2" y2="208.5" stroke="#8a7cff" fill="#8a7cff" stroke-width="2.7" stroke-linecap="round" stroke-linejoin="round"/></g><line pathLength="1" x1="82.2" y1="230.5" x2="98.2" y2="208.5" stroke="#8a7cff" fill="#000000" stroke-width="1.8" stroke-linecap="round"/><g opacity="0.050"><line pathLength="1" x1="98.2" y1="208.5" x2="104.6" y2="209.8" stroke="#8a7cff" fill="#8a7cff" stroke-width="6.6" stroke-linecap="round" stroke-linejoin="round"/></g><g opacity="0.070"><line pathLength="1" x1="98.2" y1="208.5" x2="104.6" y2="209.8" stroke="#8a7cff" fill="#8a7cff" stroke-width="5.55" stroke-linecap="round" stroke-linejoin="round"/></g><g opacity="0.090"><line pathLength="1" x1="98.2" y1="208.5" x2="104.6" y2="209.8" stroke="#8a7cff" fill="#8a7cff" stroke-width="4.5" stroke-linecap="round" stroke-linejoin="round"/></g><g opacity="0.120"><line pathLength="1" x1="98.2" y1="208.5" x2="104.6" y2="209.8" stroke="#8a7cff" fill="#8a7cff" stroke-width="3.6" stroke-linecap="round" stroke-linejoin="round"/></g><g opacity="0.160"><line pathLength="1" x1="98.2" y1="208.5" x2="104.6" y2="209.8" stroke="#8a7cff" fill="#8a7cff" stroke-width="2.7" stroke-linecap="round" stroke-linejoin="round"/></g><line pathLength="1" x1="98.2" y1="208.5" x2="104.6" y2="209.8" stroke="#8a7cff" fill="#000000" stroke-width="1.8" stroke-linecap="round"/><g> <circle r="14" cx="234.1" cy="96.5" fill="#000000" fill-opacity="0"/><circle cx="234.1" cy="96.5" r="10.7" fill="#8a7cff" opacity="0.22"/> <circle cx="234.1" cy="96.5" r="4.2" fill="#8a7cff"/><circle cx="234.1" cy="96.5" r="1.8" fill="#ffffff"/></g><g> <circle r="14" cx="98.2" cy="208.5" fill="#000000" fill-opacity="0"/><circle cx="98.2" cy="208.5" r="9.7" fill="#8a7cff" opacity="0.22"/> <circle cx="98.2" cy="208.5" r="3.8" fill="#8a7cff"/><circle cx="98.2" cy="208.5" r="1.7" fill="#ffffff"/></g><g> <circle r="14" cx="97.7" cy="270" fill="#000000" fill-opacity="0"/><circle cx="97.7" cy="270" r="9.1" fill="#8a7cff" opacity="0.22"/> <circle cx="97.7" cy="270" r="3.6" fill="#8a7cff"/><circle cx="97.7" cy="270" r="1.6" fill="#ffffff"/></g><g> <circle r="14" cx="305.9" cy="61.2" fill="#000000" fill-opacity="0"/><circle cx="305.9" cy="61.2" r="8.4" fill="#8a7cff" opacity="0.22"/> <circle cx="305.9" cy="61.2" r="3.3" fill="#8a7cff"/><circle cx="305.9" cy="61.2" r="1.4" fill="#ffffff"/></g><g> <circle r="14" cx="185.9" cy="175.2" fill="#000000" fill-opacity="0"/><circle cx="185.9" cy="175.2" r="8.4" fill="#8a7cff" opacity="0.22"/> <circle cx="185.9" cy="175.2" r="3.3" fill="#8a7cff"/><circle cx="185.9" cy="175.2" r="1.4" fill="#ffffff"/></g><g> <circle r="14" cx="82.2" cy="230.5" fill="#000000" fill-opacity="0"/><circle cx="82.2" cy="230.5" r="8.3" fill="#8a7cff" opacity="0.22"/> <circle cx="82.2" cy="230.5" r="3.2" fill="#8a7cff"/><circle cx="82.2" cy="230.5" r="1.4" fill="#ffffff"/></g><g> <circle r="14" cx="297.6" cy="30" fill="#000000" fill-opacity="0"/><circle cx="297.6" cy="30" r="7.9" fill="#8a7cff" opacity="0.22"/> <circle cx="297.6" cy="30" r="3.1" fill="#8a7cff"/><circle cx="297.6" cy="30" r="1.4" fill="#ffffff"/></g><g> <circle r="14" cx="104.6" cy="209.8" fill="#000000" fill-opacity="0"/><circle cx="104.6" cy="209.8" r="7.7" fill="#8a7cff" opacity="0.22"/> <circle cx="104.6" cy="209.8" r="3.0" fill="#8a7cff"/><circle cx="104.6" cy="209.8" r="1.3" fill="#ffffff"/></g><g> <circle r="14" cx="218.3" cy="114.3" fill="#000000" fill-opacity="0"/><circle cx="218.3" cy="114.3" r="7.6" fill="#8a7cff" opacity="0.22"/> <circle cx="218.3" cy="114.3" r="2.9" fill="#8a7cff"/><circle cx="218.3" cy="114.3" r="1.3" fill="#ffffff"/></g><g> <circle r="14" cx="305.6" cy="98.3" fill="#000000" fill-opacity="0"/><circle cx="305.6" cy="98.3" r="7.4" fill="#8a7cff" opacity="0.22"/> <circle cx="305.6" cy="98.3" r="2.9" fill="#8a7cff"/><circle cx="305.6" cy="98.3" r="1.3" fill="#ffffff"/></g><g> <circle r="14" cx="254.1" cy="88.8" fill="#000000" fill-opacity="0"/><circle cx="254.1" cy="88.8" r="7.4" fill="#8a7cff" opacity="0.22"/> <circle cx="254.1" cy="88.8" r="2.9" fill="#8a7cff"/><circle cx="254.1" cy="88.8" r="1.3" fill="#ffffff"/></g><g> <circle r="14" cx="183.4" cy="213.3" fill="#000000" fill-opacity="0"/><circle cx="183.4" cy="213.3" r="7.2" fill="#8a7cff" opacity="0.22"/> <circle cx="183.4" cy="213.3" r="2.8" fill="#8a7cff"/><circle cx="183.4" cy="213.3" r="1.2" fill="#ffffff"/></g><g> <circle r="14" cx="177.8" cy="257.4" fill="#000000" fill-opacity="0"/><circle cx="177.8" cy="257.4" r="6.1" fill="#8a7cff" opacity="0.22"/> <circle cx="177.8" cy="257.4" r="2.4" fill="#8a7cff"/><circle cx="177.8" cy="257.4" r="1.1" fill="#ffffff"/></g><g> <circle r="14" cx="145.4" cy="267.7" fill="#000000" fill-opacity="0"/><circle cx="145.4" cy="267.7" r="6.7" fill="#8a7cff" opacity="0.22"/> <circle cx="145.4" cy="267.7" r="2.6" fill="#8a7cff"/><circle cx="145.4" cy="267.7" r="1.1" fill="#ffffff"/></g><g> <circle r="14" cx="74.1" cy="243.3" fill="#000000" fill-opacity="0"/><circle cx="74.1" cy="243.3" r="7.2" fill="#8a7cff" opacity="0.22"/> <circle cx="74.1" cy="243.3" r="2.8" fill="#8a7cff"/><circle cx="74.1" cy="243.3" r="1.2" fill="#ffffff"/></g></svg>